# Blender v2.77 (sub 0) OBJ File: ''
# www.blender.org
mtllib arrow.mtl
o Cone.001
v 0.000000 -0.157500 0.953593
v 0.000000 -0.000000 0.323593
v 0.030728 -0.154473 0.953593
v 0.060272 -0.145511 0.953593
v 0.087504 -0.130955 0.953593
v 0.111368 -0.111368 0.953593
v 0.130955 -0.087504 0.953593
v 0.145511 -0.060272 0.953593
v 0.154473 -0.030728 0.953593
v 0.157500 -0.000000 0.953593
v 0.154473 0.030728 0.953593
v 0.145511 0.060272 0.953593
v 0.130955 0.087504 0.953593
v 0.111368 0.111368 0.953593
v 0.087504 0.130955 0.953593
v 0.060272 0.145511 0.953593
v 0.030728 0.154473 0.953593
v 0.000000 0.157500 0.953593
v -0.030728 0.154473 0.953593
v -0.060272 0.145511 0.953593
v -0.087504 0.130955 0.953593
v -0.111368 0.111368 0.953593
v -0.130958 0.087501 0.953593
v -0.145511 0.060272 0.953593
v -0.154473 0.030725 0.953593
v -0.157500 -0.000000 0.953593
v -0.154473 -0.030728 0.953593
v -0.145511 -0.060272 0.953593
v -0.130955 -0.087504 0.953593
v -0.111368 -0.111368 0.953593
v -0.087501 -0.130958 0.953593
v -0.060272 -0.145511 0.953593
v -0.030725 -0.154473 0.953593
v 0.000000 -0.157500 -0.618732
v 0.000000 0.000000 -1.248732
v 0.030728 -0.154473 -0.618732
v 0.060272 -0.145511 -0.618732
v 0.087504 -0.130955 -0.618732
v 0.111368 -0.111368 -0.618732
v 0.130955 -0.087504 -0.618732
v 0.145511 -0.060272 -0.618732
v 0.154473 -0.030728 -0.618732
v 0.157500 0.000000 -0.618732
v 0.154473 0.030728 -0.618732
v 0.145511 0.060272 -0.618732
v 0.130955 0.087504 -0.618732
v 0.111368 0.111368 -0.618732
v 0.087504 0.130955 -0.618732
v 0.060272 0.145511 -0.618732
v 0.030728 0.154473 -0.618732
v 0.000000 0.157500 -0.618732
v -0.030728 0.154473 -0.618732
v -0.060272 0.145511 -0.618732
v -0.087504 0.130955 -0.618732
v -0.111368 0.111368 -0.618732
v -0.130958 0.087501 -0.618732
v -0.145511 0.060272 -0.618732
v -0.154473 0.030725 -0.618732
v -0.157500 0.000000 -0.618732
v -0.154473 -0.030728 -0.618732
v -0.145511 -0.060272 -0.618732
v -0.130955 -0.087504 -0.618732
v -0.111368 -0.111368 -0.618732
v -0.087501 -0.130958 -0.618732
v -0.060272 -0.145511 -0.618732
v -0.030725 -0.154473 -0.618732
v 0.078750 -0.078750 -0.809547
v 0.078750 -0.078750 0.765453
v -0.078750 -0.078750 0.765453
v -0.078750 -0.078750 -0.809547
v 0.078750 0.078750 -0.809547
v -0.078750 0.078750 -0.809547
v -0.078750 0.078750 0.765453
v 0.078750 0.078750 0.765453
vn 0.0951 -0.9657 -0.2414
vn 0.2817 -0.9286 -0.2414
vn 0.4575 -0.8558 -0.2414
vn 0.6157 -0.7501 -0.2414
vn 0.7501 -0.6157 -0.2414
vn 0.8558 -0.4575 -0.2414
vn 0.9286 -0.2817 -0.2414
vn 0.9657 -0.0951 -0.2414
vn 0.9657 0.0951 -0.2414
vn 0.9286 0.2817 -0.2414
vn 0.8558 0.4575 -0.2414
vn 0.7501 0.6157 -0.2414
vn 0.6157 0.7501 -0.2414
vn 0.4575 0.8558 -0.2414
vn 0.2817 0.9286 -0.2414
vn 0.0951 0.9657 -0.2414
vn -0.0951 0.9657 -0.2414
vn -0.2817 0.9286 -0.2414
vn -0.4575 0.8558 -0.2414
vn -0.6157 0.7501 -0.2414
vn -0.7501 0.6157 -0.2414
vn -0.8558 0.4574 -0.2414
vn -0.9286 0.2817 -0.2414
vn -0.9657 0.0951 -0.2414
vn -0.9657 -0.0951 -0.2414
vn -0.9286 -0.2817 -0.2414
vn -0.8558 -0.4575 -0.2414
vn -0.7501 -0.6157 -0.2414
vn -0.6157 -0.7501 -0.2414
vn -0.4574 -0.8558 -0.2414
vn -0.2817 -0.9286 -0.2414
vn -0.0951 -0.9657 -0.2414
vn -0.0000 0.0000 1.0000
vn 0.0000 -1.0000 -0.0000
vn 0.0000 1.0000 0.0000
vn 1.0000 0.0000 0.0000
vn -1.0000 0.0000 0.0000
vn 0.0000 0.0000 -1.0000
usemtl Material.001
s 1
f 1//1 2//1 3//1
f 3//2 2//2 4//2
f 4//3 2//3 5//3
f 5//4 2//4 6//4
f 6//5 2//5 7//5
f 7//6 2//6 8//6
f 8//7 2//7 9//7
f 9//8 2//8 10//8
f 10//9 2//9 11//9
f 11//10 2//10 12//10
f 12//11 2//11 13//11
f 13//12 2//12 14//12
f 14//13 2//13 15//13
f 15//14 2//14 16//14
f 16//15 2//15 17//15
f 17//16 2//16 18//16
f 18//17 2//17 19//17
f 19//18 2//18 20//18
f 20//19 2//19 21//19
f 21//20 2//20 22//20
f 22//21 2//21 23//21
f 23//22 2//22 24//22
f 24//23 2//23 25//23
f 25//24 2//24 26//24
f 26//25 2//25 27//25
f 27//26 2//26 28//26
f 28//27 2//27 29//27
f 29//28 2//28 30//28
f 30//29 2//29 31//29
f 31//30 2//30 32//30
f 32//31 2//31 33//31
f 33//32 2//32 1//32
f 1//33 3//33 4//33 5//33 6//33 7//33 8//33 9//33 10//33 11//33 12//33 13//33 14//33 15//33 16//33 17//33 18//33 19//33 20//33 21//33 22//33 23//33 24//33 25//33 26//33 27//33 28//33 29//33 30//33 31//33 32//33 33//33
f 34//1 35//1 36//1
f 36//2 35//2 37//2
f 37//3 35//3 38//3
f 38//4 35//4 39//4
f 39//5 35//5 40//5
f 40//6 35//6 41//6
f 41//7 35//7 42//7
f 42//8 35//8 43//8
f 43//9 35//9 44//9
f 44//10 35//10 45//10
f 45//11 35//11 46//11
f 46//12 35//12 47//12
f 47//13 35//13 48//13
f 48//14 35//14 49//14
f 49//15 35//15 50//15
f 50//16 35//16 51//16
f 51//17 35//17 52//17
f 52//18 35//18 53//18
f 53//19 35//19 54//19
f 54//20 35//20 55//20
f 55//21 35//21 56//21
f 56//22 35//22 57//22
f 57//23 35//23 58//23
f 58//24 35//24 59//24
f 59//25 35//25 60//25
f 60//26 35//26 61//26
f 61//27 35//27 62//27
f 62//28 35//28 63//28
f 63//29 35//29 64//29
f 64//30 35//30 65//30
f 65//31 35//31 66//31
f 66//32 35//32 34//32
f 34//33 36//33 37//33 38//33 39//33 40//33 41//33 42//33 43//33 44//33 45//33 46//33 47//33 48//33 49//33 50//33 51//33 52//33 53//33 54//33 55//33 56//33 57//33 58//33 59//33 60//33 61//33 62//33 63//33 64//33 65//33 66//33
f 67//34 68//34 69//34 70//34
f 71//35 72//35 73//35 74//35
f 67//36 71//36 74//36 68//36
f 68//33 74//33 73//33 69//33
f 69//37 73//37 72//37 70//37
f 71//38 67//38 70//38 72//38
