# Blender v2.77 (sub 0) OBJ File: 'warrior.blend'
# www.blender.org
mtllib warrior.mtl
o Player_Cube.001
v -5.333713 2.688778 1.650062
v -6.031059 10.658330 1.650623
v -2.346255 2.950549 -3.546722
v -3.043601 10.920100 -3.546161
v -5.161145 2.703871 1.750025
v -5.858492 10.673423 1.750586
v -2.173687 2.965642 -3.446759
v -2.871034 10.935193 -3.446198
v 2.843186 2.822992 2.011055
v 2.843237 6.822992 2.011261
v 2.844051 2.823198 -1.988945
v 2.844101 6.823198 -1.988739
v 3.043187 2.822989 2.011098
v 3.043237 6.822990 2.011304
v 3.044051 2.823195 -1.988901
v 3.044101 6.823196 -1.988696
v -2.000000 6.794211 0.999999
v -2.000000 6.795173 -1.000000
v -2.000000 13.544210 1.003245
v -2.000001 13.545170 -0.996755
v -4.000216 13.544718 -0.996323
v -3.999784 13.544615 1.003677
v -1.999784 13.544640 1.003245
v -2.000216 13.544743 -0.996755
v -4.000131 6.794717 -0.996670
v -3.999699 6.794614 1.003330
v -1.999699 6.794638 1.002897
v -2.000131 6.794741 -0.997102
v -2.000000 0.044692 1.000000
v -2.000000 0.044692 -1.000000
v -2.000000 6.794692 1.000000
v -2.000000 6.794692 -1.000000
v -2.000480 13.544670 2.002764
v -1.999520 13.544670 -1.997236
v -2.000522 17.544670 2.002765
v -1.999561 17.544670 -1.997235
v 2.000000 6.795171 -0.999991
v 2.000000 6.794211 0.999999
v 2.000000 13.545172 -0.996755
v 2.000000 13.544210 1.003245
v 2.000131 6.794741 -0.997102
v 1.999699 6.794638 1.002897
v 3.999699 6.794614 1.003330
v 4.000131 6.794717 -0.996670
v 2.000215 13.544743 -0.996756
v 1.999784 13.544640 1.003245
v 3.999784 13.544615 1.003677
v 4.000216 13.544718 -0.996323
v 0.000000 0.044692 -1.000000
v -0.000000 0.044692 1.000000
v -0.000000 6.794692 1.000000
v -0.000000 6.794692 -1.000000
v 2.000480 13.544712 -1.996275
v 1.999520 13.544712 2.003725
v 2.000439 17.544712 -1.996274
v 1.999478 17.544712 2.003726
v 2.000000 6.794692 -1.000000
v 2.000000 6.794692 1.000000
v 2.000000 0.044692 -1.000000
v 2.000000 0.044692 1.000000
v 0.000000 0.044692 -1.000000
v -0.000000 0.044692 1.000000
v -0.000000 6.794692 1.000000
v -0.000000 6.794692 -1.000000
v -2.200390 13.347651 2.202793
v -2.199472 13.347664 -2.197282
v -2.200572 17.747658 2.202717
v -2.199515 17.747658 -2.197283
v 2.200531 13.347710 -2.196227
v 2.199474 13.347710 2.203773
v 2.200485 17.747704 -2.196226
v 2.199428 17.747704 2.203774
v -2.000000 6.794436 1.371368
v -2.000000 13.544435 1.367648
v 2.000000 6.794436 1.371368
v 2.000000 13.544435 1.367648
v 2.000000 13.544234 1.003245
v 2.000000 6.794236 1.006965
v -2.000000 6.794236 1.006965
v -2.000000 13.544234 1.003245
vt 0.5558 0.2233
vt 0.4238 0.2233
vt 0.4238 0.0006
vt 0.5558 0.0006
vt 0.7354 0.9922
vt 0.6695 0.9922
vt 0.6695 0.7695
vt 0.7354 0.7695
vt 0.3978 0.4885
vt 0.2659 0.4885
vt 0.2659 0.2659
vt 0.3978 0.2659
vt 0.6643 0.4123
vt 0.6643 0.4783
vt 0.5323 0.4783
vt 0.5323 0.4123
vt 0.1999 0.1999
vt 0.1999 0.1339
vt 0.3318 0.1339
vt 0.3318 0.1999
vt 0.0679 0.9675
vt 0.0679 0.7448
vt 0.1339 0.7448
vt 0.1339 0.9675
vt 0.6682 0.9922
vt 0.6022 0.9922
vt 0.6022 0.7695
vt 0.6682 0.7695
vt 0.9994 0.8590
vt 0.9334 0.8590
vt 0.9334 0.6363
vt 0.9994 0.6363
vt 0.6903 0.1471
vt 0.6903 0.2131
vt 0.6244 0.2131
vt 0.6244 0.1471
vt 0.3991 0.9922
vt 0.3331 0.9922
vt 0.3331 0.7695
vt 0.3991 0.7695
vt 0.5311 0.7682
vt 0.3991 0.7682
vt 0.3991 0.6363
vt 0.5311 0.6363
vt 0.0006 0.7435
vt 0.0006 0.6115
vt 0.1326 0.6115
vt 0.1326 0.7435
vt 0.2659 0.7682
vt 0.2659 0.6363
vt 0.3978 0.6363
vt 0.3978 0.7682
vt 0.6643 0.6363
vt 0.6643 0.7682
vt 0.5323 0.7682
vt 0.5323 0.6363
vt 0.6656 0.7682
vt 0.6656 0.6363
vt 0.7976 0.6363
vt 0.7976 0.7682
vt 0.5336 0.9922
vt 0.4677 0.9922
vt 0.4677 0.7695
vt 0.5336 0.7695
vt 0.1471 0.9117
vt 0.1471 0.6891
vt 0.2131 0.6891
vt 0.2131 0.9117
vt 0.8648 0.8590
vt 0.7988 0.8590
vt 0.7988 0.6363
vt 0.8648 0.6363
vt 0.9028 0.0006
vt 0.9028 0.0666
vt 0.8368 0.0666
vt 0.8368 0.0006
vt 0.8368 0.0679
vt 0.9028 0.0679
vt 0.9028 0.1339
vt 0.8368 0.1339
vt 0.8661 0.8590
vt 0.8661 0.6363
vt 0.9321 0.6363
vt 0.9321 0.8590
vt 0.8780 0.3978
vt 0.8120 0.3978
vt 0.8120 0.1751
vt 0.8780 0.1751
vt 0.8661 0.6350
vt 0.8661 0.4123
vt 0.9321 0.4123
vt 0.9321 0.6350
vt 0.8793 0.3978
vt 0.8793 0.1751
vt 0.9453 0.1751
vt 0.9453 0.3978
vt 0.6788 0.3978
vt 0.6788 0.2659
vt 0.8108 0.2659
vt 0.8108 0.3978
vt 0.5571 0.2131
vt 0.5571 0.1471
vt 0.6231 0.1471
vt 0.6231 0.2131
vt 0.6009 0.9922
vt 0.5349 0.9922
vt 0.5349 0.7695
vt 0.6009 0.7695
vt 0.9994 0.6350
vt 0.9334 0.6350
vt 0.9334 0.4123
vt 0.9994 0.4123
vt 0.0006 0.9675
vt 0.0006 0.7448
vt 0.0666 0.7448
vt 0.0666 0.9675
vt 0.6656 0.4783
vt 0.6656 0.4123
vt 0.7316 0.4123
vt 0.7316 0.4783
vt 0.2659 0.9922
vt 0.2659 0.7695
vt 0.3318 0.7695
vt 0.3318 0.9922
vt 0.7988 0.4123
vt 0.7988 0.4783
vt 0.7329 0.4783
vt 0.7329 0.4123
vt 0.1471 0.6878
vt 0.1471 0.4651
vt 0.2131 0.4651
vt 0.2131 0.6878
vt 0.3991 0.1999
vt 0.3331 0.1999
vt 0.3331 0.1339
vt 0.3991 0.1339
vt 0.4004 0.9922
vt 0.4004 0.7695
vt 0.4664 0.7695
vt 0.4664 0.9922
vt 0.7576 0.2131
vt 0.6916 0.2131
vt 0.6916 0.1471
vt 0.7576 0.1471
vt 0.7039 0.6350
vt 0.5587 0.6350
vt 0.5587 0.4898
vt 0.7039 0.4898
vt 0.4123 0.6350
vt 0.4123 0.4898
vt 0.5575 0.4898
vt 0.5575 0.6350
vt 0.5323 0.4110
vt 0.5323 0.2659
vt 0.6775 0.2659
vt 0.6775 0.4110
vt 0.1458 0.4651
vt 0.1458 0.6102
vt 0.0006 0.6102
vt 0.0006 0.4651
vt 0.2659 0.6350
vt 0.2659 0.4898
vt 0.4110 0.4898
vt 0.4110 0.6350
vt 0.5571 0.1458
vt 0.5571 0.0006
vt 0.7023 0.0006
vt 0.7023 0.1458
vt 0.5311 0.4885
vt 0.3991 0.4885
vt 0.3991 0.2659
vt 0.5311 0.2659
vt 0.4226 0.1326
vt 0.1999 0.1326
vt 0.1999 0.0006
vt 0.4226 0.0006
vt 0.1999 0.2012
vt 0.3318 0.2012
vt 0.3318 0.2132
vt 0.1999 0.2132
vt 0.2277 0.6878
vt 0.2277 0.4651
vt 0.2397 0.4651
vt 0.2397 0.6878
vt 0.2264 0.4651
vt 0.2264 0.6878
vt 0.2144 0.6878
vt 0.2144 0.4651
vt 0.3318 0.2265
vt 0.1999 0.2265
vt 0.1999 0.2145
vt 0.3318 0.2145
vt 0.2646 0.2659
vt 0.2646 0.4638
vt 0.0006 0.4638
vt 0.0006 0.2659
vt 0.2554 0.7290
vt 0.2488 0.7290
vt 0.2488 0.4651
vt 0.2554 0.4651
vt 0.1986 0.2646
vt 0.0006 0.2646
vt 0.0006 0.0006
vt 0.1986 0.0006
vt 0.2476 0.7290
vt 0.2410 0.7290
vt 0.2410 0.4651
vt 0.2476 0.4651
vt 0.1999 0.2357
vt 0.3978 0.2357
vt 0.3978 0.2423
vt 0.1999 0.2423
vt 0.1999 0.2278
vt 0.3978 0.2278
vt 0.3978 0.2344
vt 0.1999 0.2344
vt 0.7035 0.1326
vt 0.7035 0.0006
vt 0.8355 0.0006
vt 0.8355 0.1326
vt 0.2633 0.7303
vt 0.2567 0.7303
vt 0.2567 0.5983
vt 0.2633 0.5983
vt 0.8371 0.6218
vt 0.7052 0.6218
vt 0.7052 0.4898
vt 0.8371 0.4898
vt 0.2633 0.5970
vt 0.2567 0.5970
vt 0.2567 0.4651
vt 0.2633 0.4651
vt 0.1999 0.2514
vt 0.3318 0.2514
vt 0.3318 0.2580
vt 0.1999 0.2580
vt 0.1999 0.2435
vt 0.3318 0.2435
vt 0.3318 0.2501
vt 0.1999 0.2501
vn -0.0000 -0.0005 1.0000
vn -1.0000 -0.0000 0.0000
vn 0.0000 0.0005 -1.0000
vn -0.0000 -1.0000 -0.0005
vn -0.0000 1.0000 0.0005
vn 0.0002 -0.0001 1.0000
vn 1.0000 0.0000 -0.0002
vn 0.0000 -1.0000 0.0000
vn -0.0002 -0.0000 1.0000
vn -1.0000 -0.0000 -0.0002
vn 0.0002 0.0000 -1.0000
vn -0.0000 1.0000 0.0000
vn 0.0000 0.0000 1.0000
vn 0.0000 0.0000 -1.0000
vn -0.0000 -1.0000 -0.0001
vn 0.0000 1.0000 0.0001
vn 1.0000 0.0000 0.0000
vn 1.0000 0.0000 0.0002
vn -0.0002 0.0001 -1.0000
vn -1.0000 -0.0000 0.0002
vn 0.0002 0.0001 -1.0000
vn -0.0002 -0.0001 1.0000
vn 0.0000 0.0006 1.0000
vn 0.0000 -0.0006 -1.0000
vn 0.0000 1.0000 -0.0005
vn 0.0000 -1.0000 0.0006
vn -0.8628 -0.0755 -0.4998
vn 0.4979 0.0436 -0.8661
vn 0.8628 0.0755 0.4998
vn -0.4979 -0.0436 0.8661
vn 0.0872 -0.9962 -0.0001
vn -0.0872 0.9962 0.0001
usemtl Character
s off
f 40/1/1 19/2/1 17/3/1 38/4/1
f 19/5/2 20/6/2 18/7/2 17/8/2
f 20/9/3 39/10/3 37/11/3 18/12/3
f 37/13/4 38/14/4 17/15/4 18/16/4
f 20/17/5 19/18/5 40/19/5 39/20/5
f 64/21/2 61/22/2 62/23/2 63/24/2
f 23/25/6 22/26/6 26/27/6 27/28/6
f 24/29/7 23/30/7 27/31/7 28/32/7
f 49/33/8 50/34/8 29/35/8 30/36/8
f 31/37/2 32/38/2 30/39/2 29/40/2
f 56/41/9 35/42/9 33/43/9 54/44/9
f 35/45/10 36/46/10 34/47/10 33/48/10
f 36/49/11 55/50/11 53/51/11 34/52/11
f 53/53/8 54/54/8 33/55/8 34/56/8
f 36/57/12 35/58/12 56/59/12 55/60/12
f 51/61/13 31/62/13 29/63/13 50/64/13
f 57/65/14 59/66/14 61/67/14 64/68/14
f 32/69/14 52/70/14 49/71/14 30/72/14
f 41/73/15 44/74/15 43/75/15 42/76/15
f 48/77/16 45/78/16 46/79/16 47/80/16
f 63/81/13 62/82/13 60/83/13 58/84/13
f 52/85/17 51/86/17 50/87/17 49/88/17
f 58/89/17 60/90/17 59/91/17 57/92/17
f 40/93/17 38/94/17 37/95/17 39/96/17
f 56/97/18 54/98/18 53/99/18 55/100/18
f 32/101/12 31/102/12 51/103/12 52/104/12
f 21/105/19 24/106/19 28/107/19 25/108/19
f 22/109/20 21/110/20 25/111/20 26/112/20
f 47/113/18 43/114/18 44/115/18 48/116/18
f 21/117/16 22/118/16 23/119/16 24/120/16
f 48/121/21 44/122/21 41/123/21 45/124/21
f 61/125/8 59/126/8 60/127/8 62/128/8
f 45/129/10 41/130/10 42/131/10 46/132/10
f 28/133/15 27/134/15 26/135/15 25/136/15
f 46/137/22 42/138/22 43/139/22 47/140/22
f 57/141/12 64/142/12 63/143/12 58/144/12
f 72/145/9 67/146/9 65/147/9 70/148/9
f 67/149/10 68/150/10 66/151/10 65/152/10
f 68/153/11 71/154/11 69/155/11 66/156/11
f 69/157/8 70/158/8 65/159/8 66/160/8
f 68/161/12 67/162/12 72/163/12 71/164/12
f 72/165/18 70/166/18 69/167/18 71/168/18
f 76/169/23 74/170/23 73/171/23 75/172/23
f 77/173/24 78/174/24 79/175/24 80/176/24
f 74/177/25 76/178/25 77/179/25 80/180/25
f 76/181/17 75/182/17 78/183/17 77/184/17
f 73/185/2 74/186/2 80/187/2 79/188/2
f 75/189/26 73/190/26 79/191/26 78/192/26
usemtl Character_NONE
f 2/193/27 4/194/27 3/195/27 1/196/27
f 4/197/28 8/198/28 7/199/28 3/200/28
f 8/201/29 6/202/29 5/203/29 7/204/29
f 6/205/30 2/206/30 1/207/30 5/208/30
f 1/209/31 3/210/31 7/211/31 5/212/31
f 6/213/32 8/214/32 4/215/32 2/216/32
f 10/217/10 12/218/10 11/219/10 9/220/10
f 12/221/21 16/222/21 15/223/21 11/224/21
f 16/225/18 14/226/18 13/227/18 15/228/18
f 14/229/22 10/230/22 9/231/22 13/232/22
f 9/233/15 11/234/15 15/235/15 13/236/15
f 14/237/16 16/238/16 12/239/16 10/240/16
