# Blender v2.77 (sub 0) OBJ File: ''
# www.blender.org
mtllib crystal.mtl
o Icosphere
v 0.000000 -0.495000 -0.000000
v 0.358182 -0.221371 0.260231
v -0.136811 -0.221371 0.421067
v 0.358182 -0.221371 -0.260231
v -0.442740 -0.221371 -0.000000
v -0.136811 -0.221371 -0.421067
v 0.442740 0.221371 0.000000
v 0.136811 0.221371 0.421067
v -0.358182 0.221371 0.260231
v -0.358182 0.221371 -0.260231
v 0.136811 0.221371 -0.421067
v 0.000000 0.495000 0.000000
vt 0.7017 0.2376
vt 0.4521 0.2376
vt 0.6245 0.4749
vt 0.6245 0.0002
vt 0.9036 0.3842
vt 0.9036 0.0909
vt 0.4998 0.5660
vt 0.4998 0.8594
vt 0.2502 0.7127
vt 0.5002 0.6001
vt 0.7498 0.4753
vt 0.7498 0.7544
vt 0.2498 0.7127
vt 0.2498 0.4753
vt 0.0002 0.5660
vt 0.2498 0.9500
vt 0.0002 0.8594
vt 0.9998 0.4753
vt 0.7502 0.6001
vt 0.9998 0.7544
vt 0.2502 0.4753
vt 0.5002 0.8791
vt 0.7502 0.8791
vt 0.2502 0.9500
vt 0.4517 0.0909
vt 0.4517 0.3842
vt 0.2498 0.2376
vt 0.1727 0.0002
vt 0.0002 0.2376
vt 0.1727 0.4749
vn 0.1876 -0.7947 0.5774
vn 0.6071 -0.7947 0.0000
vn -0.4911 -0.7947 0.3568
vn -0.4911 -0.7947 -0.3568
vn 0.1876 -0.7947 -0.5774
vn 0.9822 -0.1876 -0.0000
vn 0.3035 -0.1876 0.9342
vn -0.7947 -0.1876 0.5774
vn -0.7947 -0.1876 -0.5774
vn 0.3035 -0.1876 -0.9342
vn 0.7947 0.1876 0.5774
vn -0.3035 0.1876 0.9342
vn -0.9822 0.1876 0.0000
vn -0.3035 0.1876 -0.9342
vn 0.7947 0.1876 -0.5774
vn 0.4911 0.7947 0.3568
vn -0.1876 0.7947 0.5774
vn -0.6071 0.7947 0.0000
vn -0.1876 0.7947 -0.5774
vn 0.4911 0.7947 -0.3568
usemtl None
s 1
f 1/1/1 2/2/1 3/3/1
f 2/2/2 1/1/2 4/4/2
f 1/1/3 3/3/3 5/5/3
f 1/1/4 5/5/4 6/6/4
f 1/1/5 6/6/5 4/4/5
f 2/7/6 4/8/6 7/9/6
f 3/10/7 2/11/7 8/12/7
f 5/13/8 3/14/8 9/15/8
f 6/16/9 5/13/9 10/17/9
f 4/18/10 6/19/10 11/20/10
f 2/7/11 7/9/11 8/21/11
f 3/10/12 8/12/12 9/22/12
f 5/13/13 9/15/13 10/17/13
f 6/19/14 10/23/14 11/20/14
f 4/8/15 11/24/15 7/9/15
f 8/25/16 7/26/16 12/27/16
f 9/28/17 8/25/17 12/27/17
f 10/29/18 9/28/18 12/27/18
f 11/30/19 10/29/19 12/27/19
f 7/26/20 11/30/20 12/27/20
