# Blender v2.77 (sub 0) OBJ File: ''
# www.blender.org
mtllib lothmouse.mtl
o Cube.002
v 0.036622 0.002881 -0.455526
v 0.036622 0.265202 -0.455526
v 0.036622 0.002881 -0.521106
v 0.036622 0.265202 -0.521106
v 0.298943 0.002881 -0.455526
v 0.298943 0.265202 -0.455526
v 0.298943 0.002881 -0.521106
v 0.298943 0.265202 -0.521106
v 0.237650 -0.158433 -0.396083
v 0.237650 -0.158433 0.396083
v -0.237650 -0.158433 0.396083
v -0.237650 -0.158433 -0.396083
v 0.237650 0.158433 -0.396083
v 0.237650 0.158433 0.396083
v -0.237650 0.158433 0.396083
v -0.237650 0.158433 -0.396083
v 0.124457 -0.156214 -0.748294
v 0.155571 -0.154573 -0.379469
v -0.155571 -0.154573 -0.379469
v -0.124457 -0.156214 -0.748294
v 0.124457 0.009728 -0.748294
v 0.155571 0.052855 -0.379469
v -0.155571 0.052855 -0.379470
v -0.124457 0.009728 -0.748294
v -0.299712 0.012758 -0.455526
v -0.299712 0.275079 -0.455526
v -0.299712 0.012758 -0.521106
v -0.299712 0.275079 -0.521106
v -0.037392 0.012758 -0.455526
v -0.037392 0.275079 -0.455526
v -0.037392 0.012758 -0.521106
v -0.037392 0.275079 -0.521106
v 0.122805 -0.154610 0.143912
v 0.028080 -0.154610 0.848709
v -0.019282 -0.154610 0.848709
v -0.114007 -0.154610 0.143912
v 0.122805 0.003265 0.143912
v 0.028080 -0.101824 0.848709
v -0.019282 -0.101824 0.848709
v -0.114007 0.003265 0.143912
vt 0.4784 0.5038
vt 0.4144 0.5038
vt 0.4144 0.5678
vt 0.4784 0.5678
vt 0.4784 0.4391
vt 0.4144 0.4391
vt 0.4144 0.5031
vt 0.4784 0.5031
vt 0.4144 0.3097
vt 0.4784 0.3097
vt 0.4784 0.3737
vt 0.4144 0.3737
vt 0.4791 0.5038
vt 0.5431 0.5038
vt 0.5431 0.5678
vt 0.4791 0.5678
vt 0.5431 0.3737
vt 0.5431 0.3097
vt 0.4791 0.3097
vt 0.4791 0.3737
vt 0.4791 0.5031
vt 0.4791 0.4391
vt 0.5431 0.4391
vt 0.5431 0.5031
vt 0.1170 0.0004
vt 0.1170 0.7735
vt 0.2330 0.7735
vt 0.2330 0.0004
vt 0.0004 0.0004
vt 0.1163 0.0004
vt 0.1163 0.7735
vt 0.0004 0.7735
vt 0.3110 0.7735
vt 0.2337 0.7735
vt 0.2337 0.0004
vt 0.3110 0.0004
vt 0.4144 0.2309
vt 0.4144 0.1536
vt 0.5304 0.1536
vt 0.5304 0.2309
vt 0.7735 0.8516
vt 0.7735 0.7742
vt 0.0004 0.7742
vt 0.0004 0.8516
vt 0.5304 0.3090
vt 0.5304 0.2316
vt 0.4144 0.2316
vt 0.4144 0.3090
vt 0.6717 0.0079
vt 0.3117 0.0004
vt 0.3117 0.0763
vt 0.6717 0.0687
vt 0.3117 0.1453
vt 0.3117 0.0846
vt 0.6717 0.0770
vt 0.6717 0.1529
vt 0.4137 0.5136
vt 0.3732 0.5136
vt 0.3631 0.1536
vt 0.4137 0.1537
vt 0.4144 0.6191
vt 0.4144 0.5685
vt 0.4903 0.5685
vt 0.4903 0.6191
vt 0.3624 0.1537
vt 0.3117 0.1536
vt 0.3219 0.5136
vt 0.3624 0.5136
vt 0.9960 0.8754
vt 0.9958 0.9989
vt 0.8751 0.9985
vt 0.8753 0.8751
vt 0.5951 0.1536
vt 0.5311 0.1536
vt 0.5311 0.2176
vt 0.5951 0.2176
vt 0.4137 0.5144
vt 0.3497 0.5144
vt 0.3497 0.5784
vt 0.4137 0.5784
vt 0.5438 0.3097
vt 0.6078 0.3097
vt 0.6078 0.3737
vt 0.5438 0.3737
vt 0.5311 0.2316
vt 0.5951 0.2316
vt 0.5951 0.2956
vt 0.5311 0.2956
vt 0.5431 0.4384
vt 0.5431 0.3744
vt 0.4791 0.3744
vt 0.4791 0.4384
vt 0.4144 0.4384
vt 0.4144 0.3744
vt 0.4784 0.3744
vt 0.4784 0.4384
vt 0.6883 0.9108
vt 0.0004 0.9339
vt 0.0004 0.9454
vt 0.6883 0.9685
vt 0.6883 0.8523
vt 0.6883 0.9100
vt 0.0004 0.8869
vt 0.0004 0.8754
vt 0.9996 0.7350
vt 0.9996 0.7735
vt 0.3117 0.7479
vt 0.3117 0.7350
vt 0.1903 0.6670
vt 0.1903 0.8790
vt 0.0001 0.8790
vt 0.0001 0.6670
vt 0.7110 0.0004
vt 0.6981 0.0004
vt 0.6724 0.6883
vt 0.7110 0.6883
vt 0.5438 0.4734
vt 0.5823 0.4734
vt 0.5823 0.4156
vt 0.5438 0.4156
vn -1.0000 0.0000 0.0000
vn 0.0000 0.0000 -1.0000
vn 1.0000 0.0000 0.0000
vn 0.0000 0.0000 1.0000
vn 0.0000 -1.0000 0.0000
vn 0.0000 1.0000 0.0000
vn -0.0000 -1.0000 0.0044
vn 0.0000 0.9932 -0.1161
vn 0.9965 0.0000 -0.0841
vn -0.9965 -0.0000 -0.0841
vn -0.0000 0.9891 0.1475
vn 0.9911 -0.0000 0.1332
vn -0.9911 -0.0000 0.1332
usemtl Material.004
s off
f 2/1/1 4/2/1 3/3/1 1/4/1
f 4/5/2 8/6/2 7/7/2 3/8/2
f 8/9/3 6/10/3 5/11/3 7/12/3
f 6/13/4 2/14/4 1/15/4 5/16/4
f 1/17/5 3/18/5 7/19/5 5/20/5
f 6/21/6 8/22/6 4/23/6 2/24/6
f 9/25/5 10/26/5 11/27/5 12/28/5
f 13/29/6 16/30/6 15/31/6 14/32/6
f 9/33/3 13/34/3 14/35/3 10/36/3
f 10/37/4 14/38/4 15/39/4 11/40/4
f 11/41/1 15/42/1 16/43/1 12/44/1
f 13/45/2 9/46/2 12/47/2 16/48/2
f 17/49/7 18/50/7 19/51/7 20/52/7
f 21/53/8 24/54/8 23/55/8 22/56/8
f 17/57/9 21/58/9 22/59/9 18/60/9
f 18/61/4 22/62/4 23/63/4 19/64/4
f 19/65/10 23/66/10 24/67/10 20/68/10
f 21/69/2 17/70/2 20/71/2 24/72/2
f 26/73/1 28/74/1 27/75/1 25/76/1
f 28/77/2 32/78/2 31/79/2 27/80/2
f 32/81/3 30/82/3 29/83/3 31/84/3
f 30/85/4 26/86/4 25/87/4 29/88/4
f 25/89/5 27/90/5 31/91/5 29/92/5
f 30/93/6 32/94/6 28/95/6 26/96/6
f 33/97/5 34/98/5 35/99/5 36/100/5
f 37/101/11 40/102/11 39/103/11 38/104/11
f 33/105/12 37/106/12 38/107/12 34/108/12
f 34/109/4 38/110/4 39/111/4 35/112/4
f 35/113/13 39/114/13 40/115/13 36/116/13
f 37/117/2 33/118/2 36/119/2 40/120/2
